<svg xmlns="http://www.w3.org/2000/svg" viewBox="0 0 1387 255" role="img">
<defs><marker id="arr" viewBox="0 0 10 10" refX="8.5" refY="5" markerWidth="7" markerHeight="7" orient="auto-start-reverse"><path d="M 0 0 L 10 5 L 0 10 z" fill="#1e1e1c"/></marker></defs>
<path d="M 264.9 115.2 C 312.7 115.2, 312.7 84, 357.6 84" fill="none" stroke="#1e1e1c" stroke-width="1.8" marker-end="url(#arr)"/>
<path d="M 264.9 139.8 C 309.9 139.8, 309.9 205.5, 351.9 205.5" fill="none" stroke="#1e1e1c" stroke-width="1.8" marker-end="url(#arr)"/>
<path d="M 567.3 84 C 591.3 84, 639 84, 660 84" fill="none" stroke="#1e1e1c" stroke-width="1.8" marker-end="url(#arr)"/>
<path d="M 573 205.5 C 615.4 205.5, 654.8 182.5, 694.2 182.5" fill="none" stroke="#1e1e1c" stroke-width="1.8" marker-end="url(#arr)"/>
<path d="M 915.3 182.5 C 977.4 182.5, 977.4 127.5, 1036.5 127.5" fill="none" stroke="#1e1e1c" stroke-width="1.8" marker-end="url(#arr)"/>
<rect x="24" y="90.5" width="240.9" height="74" rx="10" fill="#ffffff" stroke="#1e1e1c" stroke-width="1.5"/>
<text stroke="none" x="144.4" y="121.1" text-anchor="middle" font-family="Inter, Arial, sans-serif" font-size="17" font-weight="700" fill="#1e1e1c">Local neighborhood</text>
<text stroke="none" x="144.4" y="144.1" text-anchor="middle" font-family="Inter, Arial, sans-serif" font-size="14.5" fill="#44403a">‖X−x°‖∞ ≤ h</text>
<rect x="360.6" y="24" width="206.7" height="120" rx="10" fill="#e7f0ef" stroke="#1e1e1c" stroke-width="1.5"/>
<text stroke="none" x="464" y="54.6" text-anchor="middle" font-family="Inter, Arial, sans-serif" font-size="17" font-weight="700" fill="#1e1e1c">Narrowing strip</text>
<text stroke="none" x="464" y="77.6" text-anchor="middle" font-family="Inter, Arial, sans-serif" font-size="14.5" fill="#44403a">X₂−1/2</text>
<text stroke="none" x="464" y="100.6" text-anchor="middle" font-family="Inter, Arial, sans-serif" font-size="14.5" fill="#44403a">≤ hᵃ</text>
<text stroke="none" x="464" y="123.6" text-anchor="middle" font-family="Inter, Arial, sans-serif" font-size="14.5" fill="#44403a">a &gt; 1</text>
<rect x="354.9" y="180" width="218.1" height="51" rx="10" fill="#e7f0ef" stroke="#1e1e1c" stroke-width="1.5"/>
<text stroke="none" x="464" y="210.6" text-anchor="middle" font-family="Inter, Arial, sans-serif" font-size="17" font-weight="700" fill="#1e1e1c">Strip complement</text>
<rect x="663" y="47" width="286.4" height="74" rx="10" fill="#f6efdb" stroke="#1e1e1c" stroke-width="1.5"/>
<text stroke="none" x="806.2" y="77.6" text-anchor="middle" font-family="Inter, Arial, sans-serif" font-size="17" font-weight="700" fill="#1e1e1c">Vanishing displacement</text>
<text stroke="none" x="806.2" y="100.6" text-anchor="middle" font-family="Inter, Arial, sans-serif" font-size="14.5" fill="#44403a">(X₂−1/2)/h → 0</text>
<rect x="697.2" y="157" width="218.1" height="51" rx="10" fill="#f6efdb" stroke="#1e1e1c" stroke-width="1.5"/>
<text stroke="none" x="806.2" y="187.6" text-anchor="middle" font-family="Inter, Arial, sans-serif" font-size="17" font-weight="700" fill="#1e1e1c">Radial treatment</text>
<rect x="1039.5" y="90.5" width="323.7" height="74" rx="10" fill="#ffffff" stroke="#1e1e1c" stroke-width="1.5"/>
<text stroke="none" x="1201.3" y="121.1" text-anchor="middle" font-family="Inter, Arial, sans-serif" font-size="17" font-weight="700" fill="#1e1e1c">Vanishing share</text>
<text stroke="none" x="1201.3" y="144.1" text-anchor="middle" font-family="Inter, Arial, sans-serif" font-size="14.5" fill="#44403a">Among local treated observations</text>
</svg>
