<svg xmlns="http://www.w3.org/2000/svg" viewBox="0 0 1618 270" role="img">
<defs><marker id="arr" viewBox="0 0 10 10" refX="8.5" refY="5" markerWidth="7" markerHeight="7" orient="auto-start-reverse"><path d="M 0 0 L 10 5 L 0 10 z" fill="#1e1e1c"/></marker></defs>
<path d="M 230.8 61 C 275.8 61, 275.8 99.8, 317.8 99.8" fill="none" stroke="#1e1e1c" stroke-width="1.8" marker-end="url(#arr)"/>
<path d="M 221.8 158.7 C 267 158.7, 275.6 132.2, 317.8 132.2" fill="none" stroke="#1e1e1c" stroke-width="1.8" marker-end="url(#arr)"/>
<path d="M 437.7 99.8 C 491.7 99.8, 491.7 61, 542.7 61" fill="none" stroke="#1e1e1c" stroke-width="1.8" marker-end="url(#arr)"/>
<path d="M 437.7 132.2 C 482.7 132.2, 482.7 171, 524.7 171" fill="none" stroke="#1e1e1c" stroke-width="1.8" marker-end="url(#arr)"/>
<path d="M 716.5 61 C 770.5 61, 770.5 103.7, 821.5 103.7" fill="none" stroke="#1e1e1c" stroke-width="1.8" marker-end="url(#arr)"/>
<path d="M 221.8 183.3 L 244.8 183.3 Q 256.8 183.3, 256.8 195.3 L 256.8 222 Q 256.8 234, 268.8 234 L 786.5 234 Q 798.5 234, 798.5 222 L 798.5 139.8 Q 798.5 128.3, 810 128.3 L 821.5 128.3" fill="none" stroke="#1e1e1c" stroke-width="1.8" marker-end="url(#arr)"/>
<path d="M 977.3 116 C 1001.3 116, 1043.3 116, 1064.3 116" fill="none" stroke="#1e1e1c" stroke-width="1.8" marker-end="url(#arr)"/>
<path d="M 734.5 171 L 756.5 171 Q 760.5 171, 760.5 175 L 760.5 175 Q 760.5 179, 764.5 179 L 1348.9 179 Q 1360.9 179, 1360.9 167 L 1360.9 139.8 Q 1360.9 128.3, 1372.4 128.3 L 1383.9 128.3" fill="none" stroke="#1e1e1c" stroke-width="1.8" marker-end="url(#arr)"/>
<path d="M 1296.9 116 C 1330.7 116, 1353 103.7, 1383.9 103.7" fill="none" stroke="#1e1e1c" stroke-width="1.8" marker-end="url(#arr)"/>
<rect x="24" y="24" width="206.8" height="74" rx="10" fill="#ffffff" stroke="#1e1e1c" stroke-width="1.5"/>
<text stroke="none" x="127.4" y="54.6" text-anchor="middle" font-family="Inter, Arial, sans-serif" font-size="17" font-weight="700" fill="#1e1e1c">Natural A</text>
<text stroke="none" x="127.4" y="77.6" text-anchor="middle" font-family="Inter, Arial, sans-serif" font-size="14.5" fill="#44403a">continuous exposure</text>
<rect x="33" y="134" width="188.8" height="74" rx="10" fill="#ffffff" stroke="#1e1e1c" stroke-width="1.5"/>
<text stroke="none" x="127.4" y="164.6" text-anchor="middle" font-family="Inter, Arial, sans-serif" font-size="17" font-weight="700" fill="#1e1e1c">Threshold</text>
<text stroke="none" x="127.4" y="187.6" text-anchor="middle" font-family="Inter, Arial, sans-serif" font-size="14.5" fill="#44403a">δ_n minimum level</text>
<rect x="320.8" y="67.5" width="116.9" height="97" rx="10" fill="#e7f0ef" stroke="#1e1e1c" stroke-width="1.5"/>
<text stroke="none" x="379.3" y="98.1" text-anchor="middle" font-family="Inter, Arial, sans-serif" font-size="17" font-weight="700" fill="#1e1e1c">Split</text>
<text stroke="none" x="379.3" y="121.1" text-anchor="middle" font-family="Inter, Arial, sans-serif" font-size="14.5" fill="#44403a">below δ_n</text>
<text stroke="none" x="379.3" y="144.1" text-anchor="middle" font-family="Inter, Arial, sans-serif" font-size="14.5" fill="#44403a">above δ_n</text>
<rect x="545.7" y="24" width="170.9" height="74" rx="10" fill="#f6efdb" stroke="#1e1e1c" stroke-width="1.5"/>
<text stroke="none" x="631.1" y="54.6" text-anchor="middle" font-family="Inter, Arial, sans-serif" font-size="17" font-weight="700" fill="#1e1e1c">Lower tail</text>
<text stroke="none" x="631.1" y="77.6" text-anchor="middle" font-family="Inter, Arial, sans-serif" font-size="14.5" fill="#44403a">below threshold</text>
<rect x="527.7" y="134" width="206.7" height="74" rx="10" fill="#f6efdb" stroke="#1e1e1c" stroke-width="1.5"/>
<text stroke="none" x="631.1" y="164.6" text-anchor="middle" font-family="Inter, Arial, sans-serif" font-size="17" font-weight="700" fill="#1e1e1c">Retained course</text>
<text stroke="none" x="631.1" y="187.6" text-anchor="middle" font-family="Inter, Arial, sans-serif" font-size="14.5" fill="#44403a">observed dose kept</text>
<rect x="824.5" y="79" width="152.9" height="74" rx="10" fill="#ffffff" stroke="#1e1e1c" stroke-width="1.5"/>
<text stroke="none" x="900.9" y="109.6" text-anchor="middle" font-family="Inter, Arial, sans-serif" font-size="17" font-weight="700" fill="#1e1e1c">Atom</text>
<text stroke="none" x="900.9" y="132.6" text-anchor="middle" font-family="Inter, Arial, sans-serif" font-size="14.5" fill="#44403a">same dose δ_n</text>
<rect x="1067.3" y="79" width="229.5" height="74" rx="10" fill="#e7f0ef" stroke="#1e1e1c" stroke-width="1.5"/>
<text stroke="none" x="1182.1" y="109.6" text-anchor="middle" font-family="Inter, Arial, sans-serif" font-size="17" font-weight="700" fill="#1e1e1c">Boundary response</text>
<text stroke="none" x="1182.1" y="132.6" text-anchor="middle" font-family="Inter, Arial, sans-serif" font-size="14.5" fill="#44403a">at δ_n</text>
<rect x="1386.9" y="79" width="206.8" height="74" rx="10" fill="#f6efdb" stroke="#1e1e1c" stroke-width="1.5"/>
<text stroke="none" x="1490.3" y="109.6" text-anchor="middle" font-family="Inter, Arial, sans-serif" font-size="17" font-weight="700" fill="#1e1e1c">Clamp mean</text>
<text stroke="none" x="1490.3" y="132.6" text-anchor="middle" font-family="Inter, Arial, sans-serif" font-size="14.5" fill="#44403a">averages both parts</text>
</svg>
