<svg xmlns="http://www.w3.org/2000/svg" viewBox="0 -14 1363 316" role="img">
<defs><marker id="arr" viewBox="0 0 10 10" refX="8.5" refY="5" markerWidth="7" markerHeight="7" orient="auto-start-reverse"><path d="M 0 0 L 10 5 L 0 10 z" fill="#1e1e1c"/></marker></defs>
<path d="M 173.8 139 C 197.8 139, 239.8 139, 260.8 139" fill="none" stroke="#1e1e1c" stroke-width="1.8" marker-end="url(#arr)"/>
<path d="M 470.6 139 C 494.6 139, 536.6 139, 557.6 139" fill="none" stroke="#1e1e1c" stroke-width="1.8" marker-end="url(#arr)"/>
<path d="M 767.3 114.8 C 812.3 114.8, 812.3 72.5, 854.3 72.5" fill="none" stroke="#1e1e1c" stroke-width="1.8" marker-end="url(#arr)"/>
<path d="M 767.3 163.3 C 825.1 163.3, 828.9 205.5, 883.7 205.5" fill="none" stroke="#1e1e1c" stroke-width="1.8" marker-end="url(#arr)"/>
<path d="M 767.3 139 L 781.3 139 Q 793.3 139, 793.3 127 L 793.3 10 Q 793.3 -2, 805.3 -2 L 1138.8 -2 Q 1150.8 -2, 1150.8 10 L 1150.8 111.3 Q 1150.8 122.8, 1162.3 122.8 L 1173.8 122.8" fill="none" stroke="#1e1e1c" stroke-width="1.8" marker-end="url(#arr)"/>
<path d="M 1057.5 205.5 C 1117.2 205.5, 1117.2 155.2, 1173.8 155.2" fill="none" stroke="#1e1e1c" stroke-width="1.8" marker-end="url(#arr)"/>
<rect x="24" y="102" width="149.8" height="74" rx="10" fill="#ffffff" stroke="#1e1e1c" stroke-width="1.5"/>
<text stroke="none" x="98.9" y="132.6" text-anchor="middle" font-family="Inter, Arial, sans-serif" font-size="17" font-weight="700" fill="#1e1e1c">Finite pop</text>
<text stroke="none" x="98.9" y="155.6" text-anchor="middle" font-family="Inter, Arial, sans-serif" font-size="14.5" fill="#44403a">size n</text>
<rect x="263.8" y="90.5" width="206.7" height="97" rx="10" fill="#e7f0ef" stroke="#1e1e1c" stroke-width="1.5"/>
<text stroke="none" x="367.2" y="121.1" text-anchor="middle" font-family="Inter, Arial, sans-serif" font-size="17" font-weight="700" fill="#1e1e1c">Random grouping</text>
<text stroke="none" x="367.2" y="144.1" text-anchor="middle" font-family="Inter, Arial, sans-serif" font-size="14.5" fill="#44403a">disjoint groups</text>
<text stroke="none" x="367.2" y="167.1" text-anchor="middle" font-family="Inter, Arial, sans-serif" font-size="14.5" fill="#44403a">common size M</text>
<rect x="560.6" y="90.5" width="206.7" height="97" rx="10" fill="#f6efdb" stroke="#1e1e1c" stroke-width="1.5"/>
<text stroke="none" x="664" y="121.1" text-anchor="middle" font-family="Inter, Arial, sans-serif" font-size="17" font-weight="700" fill="#1e1e1c">Realized groups</text>
<text stroke="none" x="664" y="144.1" text-anchor="middle" font-family="Inter, Arial, sans-serif" font-size="14.5" fill="#44403a">Gₙ groups</text>
<text stroke="none" x="664" y="167.1" text-anchor="middle" font-family="Inter, Arial, sans-serif" font-size="14.5" fill="#44403a">Nₙ=M Gₙ</text>
<rect x="857.3" y="24" width="229.5" height="97" rx="10" fill="#ffffff" stroke="#1e1e1c" stroke-width="1.5"/>
<text stroke="none" x="972.1" y="54.6" text-anchor="middle" font-family="Inter, Arial, sans-serif" font-size="17" font-weight="700" fill="#1e1e1c">Sampling fraction</text>
<text stroke="none" x="972.1" y="77.6" text-anchor="middle" font-family="Inter, Arial, sans-serif" font-size="14.5" fill="#44403a">Nₙ/n → ρ</text>
<text stroke="none" x="972.1" y="100.6" text-anchor="middle" font-family="Inter, Arial, sans-serif" font-size="14.5" fill="#44403a">study-group share</text>
<rect x="886.7" y="157" width="170.9" height="97" rx="10" fill="#ffffff" stroke="#1e1e1c" stroke-width="1.5"/>
<text stroke="none" x="972.1" y="187.6" text-anchor="middle" font-family="Inter, Arial, sans-serif" font-size="17" font-weight="700" fill="#1e1e1c">Assignment</text>
<text stroke="none" x="972.1" y="210.6" text-anchor="middle" font-family="Inter, Arial, sans-serif" font-size="14.5" fill="#44403a">balanced groups</text>
<text stroke="none" x="972.1" y="233.6" text-anchor="middle" font-family="Inter, Arial, sans-serif" font-size="14.5" fill="#44403a">pₙ=G₁ₙ/Gₙ</text>
<rect x="1176.8" y="90.5" width="161.9" height="97" rx="10" fill="#e7f0ef" stroke="#1e1e1c" stroke-width="1.5"/>
<text stroke="none" x="1257.8" y="121.1" text-anchor="middle" font-family="Inter, Arial, sans-serif" font-size="17" font-weight="700" fill="#1e1e1c">Outcomes</text>
<text stroke="none" x="1257.8" y="144.1" text-anchor="middle" font-family="Inter, Arial, sans-serif" font-size="14.5" fill="#44403a">observed group</text>
<text stroke="none" x="1257.8" y="167.1" text-anchor="middle" font-family="Inter, Arial, sans-serif" font-size="14.5" fill="#44403a">outcomes</text>
</svg>
