<svg xmlns="http://www.w3.org/2000/svg" viewBox="0 0 945 300" role="img">
<defs><marker id="arr" viewBox="0 0 10 10" refX="8.5" refY="5" markerWidth="7" markerHeight="7" orient="auto-start-reverse"><path d="M 0 0 L 10 5 L 0 10 z" fill="#1e1e1c"/></marker></defs>
<path d="M 293.7 48.7 C 336.8 48.7, 340.7 72.5, 380.7 72.5" fill="none" stroke="#1e1e1c" stroke-width="1.8" marker-end="url(#arr)"/>
<path d="M 293.7 73.3 C 338.7 73.3, 338.7 182.5, 380.7 182.5" fill="none" stroke="#1e1e1c" stroke-width="1.8" marker-end="url(#arr)"/>
<path d="M 624.6 72.5 C 651 72.5, 688.2 75.5, 711.6 75.5" fill="none" stroke="#1e1e1c" stroke-width="1.8" marker-end="url(#arr)"/>
<path d="M 624.6 182.5 C 651 182.5, 688.2 179.5, 711.6 179.5" fill="none" stroke="#1e1e1c" stroke-width="1.8" marker-end="url(#arr)"/>
<path d="M 290.7 166.3 L 307.7 166.3 Q 319.7 166.3, 319.7 178.3 L 319.7 233.5 Q 319.7 245.5, 331.7 245.5 L 676.6 245.5 Q 688.6 245.5, 688.6 233.5 L 688.6 104 Q 688.6 92.5, 700.1 92.5 L 711.6 92.5" fill="none" stroke="#1e1e1c" stroke-width="1.8" marker-end="url(#arr)"/>
<path d="M 290.7 198.7 L 307.7 198.7 Q 319.7 198.7, 319.7 210.7 L 319.7 251.5 Q 319.7 263.5, 331.7 263.5 L 676.6 263.5 Q 688.6 263.5, 688.6 251.5 L 688.6 174 Q 688.6 162.5, 700.1 162.5 L 711.6 162.5" fill="none" stroke="#1e1e1c" stroke-width="1.8" marker-end="url(#arr)"/>
<rect x="24" y="24" width="269.7" height="74" rx="10" fill="#ffffff" stroke="#1e1e1c" stroke-width="1.5"/>
<text stroke="none" x="158.9" y="54.6" text-anchor="middle" font-family="Inter, Arial, sans-serif" font-size="17" font-weight="700" fill="#1e1e1c">Coarse cell</text>
<text stroke="none" x="158.9" y="77.6" text-anchor="middle" font-family="Inter, Arial, sans-serif" font-size="14.5" fill="#44403a">containing both fine cells</text>
<rect x="383.7" y="35.5" width="240.9" height="74" rx="10" fill="#e7f0ef" stroke="#1e1e1c" stroke-width="1.5"/>
<text stroke="none" x="504.2" y="66.1" text-anchor="middle" font-family="Inter, Arial, sans-serif" font-size="17" font-weight="700" fill="#1e1e1c">Adjacent fine cell</text>
<text stroke="none" x="504.2" y="89.1" text-anchor="middle" font-family="Inter, Arial, sans-serif" font-size="14.5" fill="#44403a">left</text>
<rect x="383.7" y="145.5" width="240.9" height="74" rx="10" fill="#e7f0ef" stroke="#1e1e1c" stroke-width="1.5"/>
<text stroke="none" x="504.2" y="176.1" text-anchor="middle" font-family="Inter, Arial, sans-serif" font-size="17" font-weight="700" fill="#1e1e1c">Adjacent fine cell</text>
<text stroke="none" x="504.2" y="199.1" text-anchor="middle" font-family="Inter, Arial, sans-serif" font-size="14.5" fill="#44403a">right</text>
<rect x="714.6" y="58.5" width="206.7" height="51" rx="10" fill="#f6efdb" stroke="#1e1e1c" stroke-width="1.5"/>
<text stroke="none" x="818" y="89.1" text-anchor="middle" font-family="Inter, Arial, sans-serif" font-size="17" font-weight="700" fill="#1e1e1c">Nonzero outcome</text>
<rect x="714.6" y="145.5" width="206.7" height="51" rx="10" fill="#f6efdb" stroke="#1e1e1c" stroke-width="1.5"/>
<text stroke="none" x="818" y="176.1" text-anchor="middle" font-family="Inter, Arial, sans-serif" font-size="17" font-weight="700" fill="#1e1e1c">Nonzero outcome</text>
<rect x="27" y="134" width="263.7" height="97" rx="10" fill="#ffffff" stroke="#1e1e1c" stroke-width="1.5"/>
<text stroke="none" x="158.9" y="164.6" text-anchor="middle" font-family="Inter, Arial, sans-serif" font-size="17" font-weight="700" fill="#1e1e1c">Shared interior node</text>
<text stroke="none" x="158.9" y="187.6" text-anchor="middle" font-family="Inter, Arial, sans-serif" font-size="14.5" fill="#44403a">signs (λᵢ, ηᵢ) at i/K</text>
<text stroke="none" x="158.9" y="210.6" text-anchor="middle" font-family="Inter, Arial, sans-serif" font-size="14.5" fill="#44403a">unrevealed sign</text>
</svg>
