<svg xmlns="http://www.w3.org/2000/svg" viewBox="0 0 1627 256" role="img">
<defs><marker id="arr" viewBox="0 0 10 10" refX="8.5" refY="5" markerWidth="7" markerHeight="7" orient="auto-start-reverse"><path d="M 0 0 L 10 5 L 0 10 z" fill="#1e1e1c"/></marker></defs>
<path d="M 221.8 61 C 266.8 61, 266.8 116, 308.8 116" fill="none" stroke="#1e1e1c" stroke-width="1.8" marker-end="url(#arr)"/>
<path d="M 214.9 171 L 243.8 171 Q 247.8 171, 247.8 175 L 247.8 175 Q 247.8 179, 251.8 179 L 570.6 179 Q 582.6 179, 582.6 167 L 582.6 139.8 Q 582.6 128.3, 594.1 128.3 L 605.6 128.3" fill="none" stroke="#1e1e1c" stroke-width="1.8" marker-end="url(#arr)"/>
<path d="M 518.6 116 C 552.5 116, 574.8 103.7, 605.6 103.7" fill="none" stroke="#1e1e1c" stroke-width="1.8" marker-end="url(#arr)"/>
<path d="M 804 116 C 828 116, 870 116, 891 116" fill="none" stroke="#1e1e1c" stroke-width="1.8" marker-end="url(#arr)"/>
<path d="M 1089.4 103.7 C 1134.4 103.7, 1134.4 48.7, 1176.4 48.7" fill="none" stroke="#1e1e1c" stroke-width="1.8" marker-end="url(#arr)"/>
<path d="M 1089.4 128.3 C 1134.4 128.3, 1134.4 158.7, 1176.4 158.7" fill="none" stroke="#1e1e1c" stroke-width="1.8" marker-end="url(#arr)"/>
<path d="M 214.9 152.5 L 235.8 152.5 Q 247.8 152.5, 247.8 140.5 L 247.8 65 Q 247.8 53, 259.8 53 L 1143.2 53 Q 1153.4 53, 1153.4 63.2 L 1153.4 63.2 Q 1153.4 73.3, 1163.5 73.3 L 1176.4 73.3" fill="none" stroke="#1e1e1c" stroke-width="1.8" marker-end="url(#arr)"/>
<path d="M 214.9 189.5 C 243.8 189.5, 1150.4 183.3, 1176.4 183.3" fill="none" stroke="#1e1e1c" stroke-width="1.8" marker-end="url(#arr)"/>
<path d="M 1340.6 61 C 1385.6 61, 1385.6 103.7, 1427.6 103.7" fill="none" stroke="#1e1e1c" stroke-width="1.8" marker-end="url(#arr)"/>
<path d="M 1340.6 171 C 1385.6 171, 1385.6 128.3, 1427.6 128.3" fill="none" stroke="#1e1e1c" stroke-width="1.8" marker-end="url(#arr)"/>
<rect x="24" y="24" width="197.8" height="74" rx="10" fill="#ffffff" stroke="#1e1e1c" stroke-width="1.5"/>
<text stroke="none" x="122.9" y="54.6" text-anchor="middle" font-family="Inter, Arial, sans-serif" font-size="17" font-weight="700" fill="#1e1e1c">Observed state</text>
<text stroke="none" x="122.9" y="77.6" text-anchor="middle" font-family="Inter, Arial, sans-serif" font-size="14.5" fill="#44403a">one constant state</text>
<rect x="311.8" y="79" width="206.8" height="74" rx="10" fill="#e7f0ef" stroke="#1e1e1c" stroke-width="1.5"/>
<text stroke="none" x="415.2" y="109.6" text-anchor="middle" font-family="Inter, Arial, sans-serif" font-size="17" font-weight="700" fill="#1e1e1c">Observed path</text>
<text stroke="none" x="415.2" y="132.6" text-anchor="middle" font-family="Inter, Arial, sans-serif" font-size="14.5" fill="#44403a">actions and rewards</text>
<rect x="30.9" y="134" width="184" height="74" rx="10" fill="#ffffff" stroke="#1e1e1c" stroke-width="1.5"/>
<text stroke="none" x="122.9" y="164.6" text-anchor="middle" font-family="Inter, Arial, sans-serif" font-size="17" font-weight="700" fill="#1e1e1c">Hidden coords</text>
<text stroke="none" x="122.9" y="187.6" text-anchor="middle" font-family="Inter, Arial, sans-serif" font-size="14.5" fill="#44403a">depth and sign</text>
<rect x="608.6" y="79" width="195.4" height="74" rx="10" fill="#f6efdb" stroke="#1e1e1c" stroke-width="1.5"/>
<text stroke="none" x="706.3" y="109.6" text-anchor="middle" font-family="Inter, Arial, sans-serif" font-size="17" font-weight="700" fill="#1e1e1c">Rare histories</text>
<text stroke="none" x="706.3" y="132.6" text-anchor="middle" font-family="Inter, Arial, sans-serif" font-size="14.5" fill="#44403a">move latent state</text>
<rect x="894" y="79" width="195.4" height="74" rx="10" fill="#ffffff" stroke="#1e1e1c" stroke-width="1.5"/>
<text stroke="none" x="991.7" y="109.6" text-anchor="middle" font-family="Inter, Arial, sans-serif" font-size="17" font-weight="700" fill="#1e1e1c">Terminal depth</text>
<text stroke="none" x="991.7" y="132.6" text-anchor="middle" font-family="Inter, Arial, sans-serif" font-size="14.5" fill="#44403a">hard to detect</text>
<rect x="1179.4" y="24" width="161.2" height="74" rx="10" fill="#e7f0ef" stroke="#1e1e1c" stroke-width="1.5"/>
<text stroke="none" x="1260" y="54.6" text-anchor="middle" font-family="Inter, Arial, sans-serif" font-size="17" font-weight="700" fill="#1e1e1c">Reward sign</text>
<text stroke="none" x="1260" y="77.6" text-anchor="middle" font-family="Inter, Arial, sans-serif" font-size="14.5" fill="#44403a">terminal +</text>
<rect x="1179.4" y="134" width="161.2" height="74" rx="10" fill="#e7f0ef" stroke="#1e1e1c" stroke-width="1.5"/>
<text stroke="none" x="1260" y="164.6" text-anchor="middle" font-family="Inter, Arial, sans-serif" font-size="17" font-weight="700" fill="#1e1e1c">Reward sign</text>
<text stroke="none" x="1260" y="187.6" text-anchor="middle" font-family="Inter, Arial, sans-serif" font-size="14.5" fill="#44403a">terminal −</text>
<rect x="1430.6" y="79" width="172.6" height="74" rx="10" fill="#f6efdb" stroke="#1e1e1c" stroke-width="1.5"/>
<text stroke="none" x="1516.9" y="109.6" text-anchor="middle" font-family="Inter, Arial, sans-serif" font-size="17" font-weight="700" fill="#1e1e1c">Target value</text>
<text stroke="none" x="1516.9" y="132.6" text-anchor="middle" font-family="Inter, Arial, sans-serif" font-size="14.5" fill="#44403a">differs by sign</text>
</svg>
