<svg xmlns="http://www.w3.org/2000/svg" viewBox="0 0 1960 256" role="img">
<defs><marker id="arr" viewBox="0 0 10 10" refX="8.5" refY="5" markerWidth="7" markerHeight="7" orient="auto-start-reverse"><path d="M 0 0 L 10 5 L 0 10 z" fill="#1e1e1c"/></marker></defs>
<path d="M 302.7 61 C 347.7 61, 347.7 116, 389.7 116" fill="none" stroke="#1e1e1c" stroke-width="1.8" marker-end="url(#arr)"/>
<path d="M 633.6 103.7 C 667.5 103.7, 689.8 116, 720.6 116" fill="none" stroke="#1e1e1c" stroke-width="1.8" marker-end="url(#arr)"/>
<path d="M 633.6 128.3 L 647.6 128.3 Q 659.6 128.3, 659.6 140.3 L 659.6 178.5 Q 659.6 190.5, 671.6 190.5 L 964.5 190.5 Q 976.5 190.5, 976.5 178.5 L 976.5 127.5 Q 976.5 116, 988 116 L 999.5 116" fill="none" stroke="#1e1e1c" stroke-width="1.8" marker-end="url(#arr)"/>
<path d="M 912.5 116 C 955.9 116, 959.1 91.8, 999.5 91.8" fill="none" stroke="#1e1e1c" stroke-width="1.8" marker-end="url(#arr)"/>
<path d="M 266.8 171 L 316.7 171 Q 328.7 171, 328.7 183 L 328.7 196.5 Q 328.7 208.5, 340.7 208.5 L 964.5 208.5 Q 976.5 208.5, 976.5 196.5 L 976.5 151.8 Q 976.5 140.3, 988 140.3 L 999.5 140.3" fill="none" stroke="#1e1e1c" stroke-width="1.8" marker-end="url(#arr)"/>
<path d="M 1263.2 116 C 1287.2 116, 1329.2 116, 1350.2 116" fill="none" stroke="#1e1e1c" stroke-width="1.8" marker-end="url(#arr)"/>
<path d="M 1605.5 116 C 1629.5 116, 1671.5 116, 1692.5 116" fill="none" stroke="#1e1e1c" stroke-width="1.8" marker-end="url(#arr)"/>
<rect x="24" y="24" width="278.7" height="74" rx="10" fill="#ffffff" stroke="#1e1e1c" stroke-width="1.5"/>
<text stroke="none" x="163.4" y="54.6" text-anchor="middle" font-family="Inter, Arial, sans-serif" font-size="17" font-weight="700" fill="#1e1e1c">Observed sample</text>
<text stroke="none" x="163.4" y="77.6" text-anchor="middle" font-family="Inter, Arial, sans-serif" font-size="14.5" fill="#44403a">treatment, proxies, outcome</text>
<rect x="392.7" y="79" width="240.9" height="74" rx="10" fill="#e7f0ef" stroke="#1e1e1c" stroke-width="1.5"/>
<text stroke="none" x="513.2" y="109.6" text-anchor="middle" font-family="Inter, Arial, sans-serif" font-size="17" font-weight="700" fill="#1e1e1c">Five-block summary</text>
<text stroke="none" x="513.2" y="132.6" text-anchor="middle" font-family="Inter, Arial, sans-serif" font-size="14.5" fill="#44403a">empirical Ŝₙ</text>
<rect x="723.6" y="67.5" width="188.8" height="97" rx="10" fill="#f6efdb" stroke="#1e1e1c" stroke-width="1.5"/>
<text stroke="none" x="818" y="98.1" text-anchor="middle" font-family="Inter, Arial, sans-serif" font-size="17" font-weight="700" fill="#1e1e1c">Proxy signal</text>
<text stroke="none" x="818" y="121.1" text-anchor="middle" font-family="Inter, Arial, sans-serif" font-size="14.5" fill="#44403a">threshold π₀σ₀²/2</text>
<text stroke="none" x="818" y="144.1" text-anchor="middle" font-family="Inter, Arial, sans-serif" font-size="14.5" fill="#44403a">k dimensions</text>
<rect x="60" y="134" width="206.8" height="74" rx="10" fill="#ffffff" stroke="#1e1e1c" stroke-width="1.5"/>
<text stroke="none" x="163.4" y="164.6" text-anchor="middle" font-family="Inter, Arial, sans-serif" font-size="17" font-weight="700" fill="#1e1e1c">Lattice mesh</text>
<text stroke="none" x="163.4" y="187.6" text-anchor="middle" font-family="Inter, Arial, sans-serif" font-size="14.5" fill="#44403a">1/√n sampling scale</text>
<rect x="1002.5" y="67.5" width="260.8" height="97" rx="10" fill="#ffffff" stroke="#1e1e1c" stroke-width="1.5"/>
<text stroke="none" x="1132.8" y="98.1" text-anchor="middle" font-family="Inter, Arial, sans-serif" font-size="17" font-weight="700" fill="#1e1e1c">Structured lattice</text>
<text stroke="none" x="1132.8" y="121.1" text-anchor="middle" font-family="Inter, Arial, sans-serif" font-size="14.5" fill="#44403a">operators, means, anchors</text>
<text stroke="none" x="1132.8" y="144.1" text-anchor="middle" font-family="Inter, Arial, sans-serif" font-size="14.5" fill="#44403a">polynomial candidate list</text>
<rect x="1353.2" y="79" width="252.3" height="74" rx="10" fill="#e7f0ef" stroke="#1e1e1c" stroke-width="1.5"/>
<text stroke="none" x="1479.3" y="109.6" text-anchor="middle" font-family="Inter, Arial, sans-serif" font-size="17" font-weight="700" fill="#1e1e1c">Atomic quotient law</text>
<text stroke="none" x="1479.3" y="132.6" text-anchor="middle" font-family="Inter, Arial, sans-serif" font-size="14.5" fill="#44403a">first minimizing λ̂ₙ</text>
<rect x="1695.5" y="67.5" width="240.9" height="97" rx="10" fill="#f6efdb" stroke="#1e1e1c" stroke-width="1.5"/>
<text stroke="none" x="1815.9" y="98.1" text-anchor="middle" font-family="Inter, Arial, sans-serif" font-size="17" font-weight="700" fill="#1e1e1c">Wasserstein report</text>
<text stroke="none" x="1815.9" y="121.1" text-anchor="middle" font-family="Inter, Arial, sans-serif" font-size="14.5" fill="#44403a">C_lat{d_S+1/√n}</text>
<text stroke="none" x="1815.9" y="144.1" text-anchor="middle" font-family="Inter, Arial, sans-serif" font-size="14.5" fill="#44403a">uniform root-n tail</text>
</svg>
